<svg width="72" height="45" fill="none" xmlns="http://www.w3.org/2000/svg"><path d="M58.591 12.98h-6.226c-.5 0-.905.405-.905.904v16.443c0 .5.405.904.905.904h6.226c.5 0 .905-.405.905-.904V13.884a.904.904 0 0 0-.905-.903zm-.905 16.443H53.27V14.788h4.416v14.635zM6.972 9.071h3.051v1.747H6.972V9.07zm5.373 0h3.052v1.747h-3.052V9.07zM0 15.779h3.052v1.808H0v-1.808zm5.374 0h3.052v1.808H5.374v-1.808zm-2.566 6.77H5.86v1.808H2.808v-1.808zm5.374 0h3.052v1.808H8.182v-1.808zm.516 10.801h2.857v1.81H8.698v-1.81zm5.031 0h2.857v1.81h-2.857v-1.81z" fill="#1EACE5"/><path d="M71.095 15.012h-4.674V13.53c0-2.492-2.03-4.52-4.525-4.52H41.359l2.924-7.788a.903.903 0 0 0-1.535-.904L35.325 9.01l-17.58.062v1.746h16.036l-4.237 4.962h-18.77v1.808H28l-4.238 4.961H13.583v1.808h8.635l-.79.926c-.23.269-.492 1.312.688 1.49h9.837l-2.47 6.579h-11.24v1.808h10.561l-2.94 7.831a.904.904 0 0 0 .387 1.097c.144.084.721.318 1.148-.193l7.438-8.669 27.059-.022a4.527 4.527 0 0 0 4.525-4.52V29.2h4.674c.5 0 .905-.404.905-.904V15.917a.905.905 0 0 0-.905-.904zM29.37 38.802l4.737-12.616a.903.903 0 0 0-.848-1.22h-9.18l16.7-19.557-4.737 12.617c-.104.277-.107 1.17.847 1.22h9.181l-16.7 19.557zM42.757 17.44v-2.65h4.416v2.65h-4.416zm4.416 3.3v8.684h-4.416v-3.512l4.416-5.171zm17.438 9.944a2.716 2.716 0 0 1-2.715 2.712H36.445v-.044h-.042l4.544-5.32v2.296c0 .5.405.904.905.904h6.226c.5 0 .905-.405.905-.904V13.885c0-.5-.405-.904-.905-.904h-6.226c-.5 0-.905.405-.905.904v3.554h-2.753l2.486-6.622h21.216a2.716 2.716 0 0 1 2.715 2.712v17.154zm5.58-3.291h-3.77V16.82h3.77v10.572z" fill="#01B1EC"/></svg>