<svg width="60" height="60" fill="none" xmlns="http://www.w3.org/2000/svg"><g clip-path="url(#a)" fill="#01B1EC"><path d="M21.206 33.467a9.699 9.699 0 0 1-4.367 1.472A3.993 3.993 0 0 0 13 32H8a4 4 0 0 0-4 4v20a4 4 0 0 0 4 4h5a4 4 0 0 0 3.852-2.98c.85.045 1.681.255 2.45.618.386.183.755.4 1.125.614.552.337 1.127.634 1.721.89 1.548.59 3.195.882 4.852.858h18a4 4 0 0 0 3.314-6.237 3.982 3.982 0 0 0 2-6 3.973 3.973 0 0 0 .72-7.188A3.95 3.95 0 0 0 52 38a4 4 0 0 0-4-4H35.368c1.564-2.978 4.406-9.635 1.64-14.477-1.217-2.127-3.76-3.791-6.461-2.415-2.818 1.432-2.187 4.261-1.883 5.619.775 3.484-1.734 7.098-7.458 10.74zM13 58H8a2 2 0 0 1-2-2V36a2 2 0 0 1 2-2h5a2 2 0 0 1 2 2v20a2 2 0 0 1-2 2zm17.616-35.708c-.452-2.023-.249-2.849.838-3.4 1.764-.9 3.231.6 3.818 1.625 2.989 5.234-2.411 13.861-2.466 13.948A1 1 0 0 0 33.65 36H48a2 2 0 1 1 0 4h-6a1 1 0 1 0 0 2h7a2 2 0 1 1 0 4h-7a1 1 0 1 0 0 2h5a2 2 0 1 1 0 4h-5a1 1 0 1 0 0 2h3a2 2 0 1 1 0 4H27a11.05 11.05 0 0 1-4.1-.712 11.962 11.962 0 0 1-1.469-.766 17.845 17.845 0 0 0-1.267-.689 8.552 8.552 0 0 0-3.164-.8V36.951a11.719 11.719 0 0 0 5.279-1.8c6.51-4.138 9.315-8.465 8.337-12.859zM42.01.971V1c0 .368-.091 9-8.009 9a1 1 0 1 0 0 2c7.887 0 8.008 8.634 8.009 9a1 1 0 1 0 2 .027V21c0-.368.091-9 8.01-9a1 1 0 1 0 0-2c-7.888 0-8.008-8.634-8.01-9a1 1 0 0 0-2-.027V.971zM47.46 11a9.5 9.5 0 0 0-4.451 5.036A9.494 9.494 0 0 0 38.558 11a9.494 9.494 0 0 0 4.451-5.036A9.5 9.5 0 0 0 47.46 11z"/><path d="M17 13v-.006A1 1 0 0 0 15 13c0 .245-.084 6-5 6a1 1 0 1 0 0 2c4.916 0 5 5.757 5 6v.006A1 1 0 1 0 17 27c0-.245.084-6 5-6a1 1 0 0 0 0-2c-4.916 0-5-5.757-5-6zm1.344 7A6.72 6.72 0 0 0 16 22.713 6.722 6.722 0 0 0 13.656 20 6.715 6.715 0 0 0 16 17.287 6.715 6.715 0 0 0 18.344 20zM51 21a1 1 0 0 0-1 1v2a1 1 0 1 0 2 0v-2a1 1 0 0 0-1-1zm0 10a1 1 0 0 0 1-1v-2a1 1 0 1 0-2 0v2a1 1 0 0 0 1 1zm2-4h2a1 1 0 1 0 0-2h-2a1 1 0 1 0 0 2zm-4 0a1 1 0 1 0 0-2h-2a1 1 0 0 0 0 2h2zM25.793 9.207l1.5 1.5a1 1 0 0 0 1.414-1.414l-1.5-1.5a1 1 0 1 0-1.414 1.414zm-3-3a1 1 0 0 0 1.414-1.414l-1.5-1.5a1 1 0 0 0-1.414 1.414l1.5 1.5zm-1.5 4.5a1 1 0 0 0 1.414 0l1.5-1.5a1 1 0 1 0-1.414-1.414l-1.5 1.5a1 1 0 0 0 0 1.414zM26.5 6.5a1 1 0 0 0 .707-.293l1.5-1.5a1 1 0 1 0-1.414-1.414l-1.5 1.5A1 1 0 0 0 26.5 6.5z"/></g><defs><clipPath id="a"><path fill="#fff" d="M0 0h60v60H0z"/></clipPath></defs></svg>