<svg width="58" height="60" fill="none" xmlns="http://www.w3.org/2000/svg"><g clip-path="url(#a)"><path d="M47.863 2.921c.619 0 1.11.522 1.11 1.15 0 .62-.475 1.132-1.08 1.148v6.6c0 .629-.49 1.15-1.109 1.15-.618 0-1.11-.521-1.11-1.15V5.22h-5.938v6.82l14.796 10.001.083.061c.394.318.491.81.372 1.226-.127.445-.508.826-1.062.826a.192.192 0 0 0-.04.005.334.334 0 0 1-.1.002c-.079-.011-.17-.052-.315-.134-.298-.17-.902-.563-2.236-1.458-1.335-.897-3.408-2.3-6.645-4.492L30.955 8.853a6.241 6.241 0 0 0-6.822-.13l-.202.13L8.308 19.412V50.93c0 2.128 1.66 3.849 3.688 3.849h22.642v-16.41c0-1.127-.878-2.033-1.946-2.034H22.25c-1.067 0-1.946.907-1.946 2.034v12.436c0 .63-.491 1.15-1.11 1.15-.618 0-1.109-.52-1.109-1.15V38.37c0-2.384 1.863-4.333 4.165-4.333h10.443c2.303 0 4.165 1.95 4.166 4.333v16.41h6.208c2.028 0 3.688-1.721 3.688-3.849 0-.629.491-1.15 1.11-1.15.618 0 1.11.521 1.11 1.15 0 3.384-2.645 6.148-5.908 6.149h-31.07c-3.263 0-5.908-2.765-5.908-6.149V20.912l-4.522 3.056a1.084 1.084 0 0 1-1.472-.244l-.067-.096a1.174 1.174 0 0 1 .327-1.586L22.718 6.927l.271-.177a8.398 8.398 0 0 1 9.178.177l5.35 3.615V5.21c-.546-.076-.96-.56-.96-1.137 0-.63.492-1.15 1.11-1.15h10.196zm.25 40.528a1.895 1.895 0 0 1 2.612.14l.108.12c1.055 1.282.192 3.332-1.488 3.332-1.736 0-2.597-2.185-1.381-3.453l.148-.14zm-3.048-3.366c2.509-2.362 6.38-2.284 8.798.236l.077.087c.33.42.329 1.026 0 1.447l-.077.088a1.082 1.082 0 0 1-1.489.079l-.084-.08c-1.578-1.643-4.099-1.694-5.735-.153l-.155.154a1.082 1.082 0 0 1-1.49.079l-.085-.08a1.18 1.18 0 0 1 0-1.621l.24-.236zm-3.59-3.69c4.48-4.436 11.554-4.364 15.95.215l.117.14c.477.68.087 1.676-.723 1.806l-.18.015c-.25 0-.5-.088-.702-.26l-.084-.08c-3.486-3.63-9.058-3.744-12.673-.34l-.343.34a1.084 1.084 0 0 1-1.574 0 1.18 1.18 0 0 1 0-1.621l.212-.215zm6.388-12.354c.619 0 1.11.52 1.11 1.15v4.061c0 .63-.491 1.15-1.11 1.15-.618 0-1.109-.52-1.109-1.15v-4.06c0-.629.491-1.15 1.11-1.15z" fill="#01B1EC" stroke="#01B1EC" stroke-width=".3"/></g><defs><clipPath id="a"><path fill="#fff" d="M0 0h57.6v60H0z"/></clipPath></defs></svg>