<svg width="63" height="65" fill="none" xmlns="http://www.w3.org/2000/svg"><g clip-path="url(#a)" fill="#01B1EC"><path d="M4.737 18.943h9.64c.505 0 .915-.427.915-.953 0-.525-.41-.952-.915-.952h-9.64c-.504 0-.914.427-.914.953 0 .525.41.952.914.952zm9.31 4.584h-3.808c-.505 0-.914.426-.914.952s.409.952.914.952h3.808c.505 0 .914-.426.914-.952s-.41-.952-.914-.952zM.914 30.13h9.325c.505 0 .914-.427.914-.953s-.41-.952-.914-.952H.914c-.505 0-.914.426-.914.952s.41.952.914.952zm14.378 16.88c0-.527-.41-.953-.915-.953h-9.64c-.504 0-.914.426-.914.952s.41.953.914.953h9.64c.505 0 .915-.427.915-.953zm-1.245-7.44h-3.808c-.505 0-.914.425-.914.951s.409.952.914.952h3.808c.505 0 .914-.426.914-.952s-.41-.952-.914-.952zm-2.894-3.747c0-.526-.41-.952-.914-.952H.914c-.505 0-.914.426-.914.952s.41.952.914.952h9.325c.505 0 .914-.426.914-.952zm27.79-14.77c.505 0 .914-.427.914-.953v-1.453c0-.526-.41-.952-.914-.952-.505 0-.914.426-.914.952v1.454c0 .526.409.952.914.952zm10.049.978a.889.889 0 0 0-1.292 0l-.987 1.028a.98.98 0 0 0 0 1.346.888.888 0 0 0 1.293 0l.986-1.027a.98.98 0 0 0 0-1.347zm1.854 9.517c-.504 0-.914.426-.914.952s.41.952.914.952h1.396c.505 0 .914-.426.914-.952s-.41-.952-.914-.952h-1.396zm-2.84 9.046a.889.889 0 0 0-1.293 0 .98.98 0 0 0 0 1.347l.987 1.028a.889.889 0 0 0 1.292 0 .98.98 0 0 0 0-1.347l-.986-1.028zM38.029 44.9v1.453c0 .526.409.952.914.952.505 0 .914-.426.914-.952V44.9c0-.526-.41-.953-.914-.953-.505 0-.914.427-.914.953zm-8.15-4.306-.987 1.028a.98.98 0 0 0 0 1.347.888.888 0 0 0 1.293 0l.987-1.028a.98.98 0 0 0 0-1.347.889.889 0 0 0-1.293 0zm-4.235-9.046c-.505 0-.914.426-.914.952s.409.952.914.952h1.395c.505 0 .914-.426.914-.952s-.41-.952-.914-.952h-1.395zm5.528-8.489-.987-1.028a.889.889 0 0 0-1.293 0 .98.98 0 0 0 0 1.347l.987 1.027a.888.888 0 0 0 1.293 0 .98.98 0 0 0 0-1.346zM43.858 32.5c0-.526-.41-.952-.914-.952h-3.087v-7.07c0-.525-.41-.952-.914-.952-.505 0-.914.427-.914.953V32.5c0 .526.409.952.914.952h4c.506 0 .915-.426.915-.952z"/><path d="M56.275 32.343c.504-.032.887-.483.857-1.008-.582-9.992-8.572-17.819-18.19-17.819-10.049 0-18.224 8.516-18.224 18.984 0 10.468 8.175 18.984 18.224 18.984 9.003 0 16.685-6.871 18.021-16.143.075-.52-.269-1.005-.768-1.083-.498-.078-.965.28-1.04.8-1.2 8.33-8.105 14.522-16.213 14.522-9.04 0-16.396-7.662-16.396-17.08 0-9.417 7.355-17.08 16.396-17.08 8.654 0 15.842 7.042 16.365 16.03.03.525.463.923.968.893z"/><path d="M38.942 8.065c-3.215 0-6.365.695-9.264 1.994H13.55c-.505 0-.914.427-.914.953 0 .525.41.952.914.952h12.689a23.707 23.707 0 0 0-4.688 4.139.98.98 0 0 0 .064 1.345.889.889 0 0 0 1.291-.067c4.096-4.71 9.94-7.412 16.036-7.412 11.927 0 21.63 10.108 21.63 22.531 0 12.423-9.703 22.53-21.63 22.53-11.926 0-21.629-10.107-21.629-22.53 0-4.35 1.193-8.573 3.45-12.211a.976.976 0 0 0-.272-1.317.892.892 0 0 0-1.264.284c-2.448 3.946-3.742 8.526-3.742 13.244 0 8.603 4.29 16.181 10.76 20.536H13.55c-.505 0-.914.426-.914.952s.41.953.914.953h16.115a22.526 22.526 0 0 0 9.278 1.994C51.877 56.935 62.4 45.973 62.4 32.5c0-13.473-10.523-24.435-23.458-24.435z"/></g><defs><clipPath id="a"><path fill="#fff" d="M0 0h62.4v65H0z"/></clipPath></defs></svg>