<svg width="120" height="25" fill="none" xmlns="http://www.w3.org/2000/svg"><path d="m11.94 17.427 4.129 2.532c.756.465 1.681-.222 1.482-1.09l-1.095-4.762 3.652-3.209c.667-.585.309-1.695-.567-1.766l-4.806-.414-1.88-4.5c-.339-.817-1.493-.817-1.831 0l-1.88 4.49-4.807.414c-.875.07-1.233 1.18-.567 1.766l3.652 3.209-1.095 4.763c-.199.867.727 1.553 1.483 1.09l4.13-2.523zM35.82 17.427l4.129 2.532c.756.465 1.681-.222 1.482-1.09l-1.094-4.762 3.651-3.209c.667-.585.309-1.695-.567-1.766l-4.806-.414-1.88-4.5c-.339-.817-1.493-.817-1.831 0l-1.88 4.49-4.806.414c-.876.07-1.234 1.18-.568 1.766l3.652 3.209-1.095 4.763c-.198.867.727 1.553 1.483 1.09l4.13-2.523zM59.699 17.427l4.129 2.532c.756.465 1.681-.222 1.482-1.09l-1.094-4.762 3.651-3.209c.667-.585.309-1.695-.567-1.766l-4.806-.414-1.88-4.5c-.338-.817-1.493-.817-1.83 0l-1.881 4.49-4.806.414c-.876.07-1.234 1.18-.568 1.766l3.652 3.209-1.094 4.763c-.2.867.726 1.553 1.482 1.09l4.13-2.523zM83.58 17.427l4.129 2.532c.756.465 1.682-.222 1.483-1.09l-1.095-4.762 3.652-3.209c.666-.585.308-1.695-.567-1.766l-4.806-.414-1.88-4.5c-.34-.817-1.493-.817-1.832 0l-1.88 4.49-4.806.414c-.876.07-1.234 1.18-.567 1.766l3.651 3.209-1.094 4.763c-.199.867.726 1.553 1.483 1.09l4.129-2.523zM107.459 17.427l4.129 2.532c.756.465 1.682-.222 1.483-1.09l-1.095-4.762 3.652-3.209c.667-.585.308-1.695-.567-1.766l-4.806-.414-1.881-4.5c-.338-.817-1.492-.817-1.83 0l-1.881 4.49-4.806.414c-.875.07-1.234 1.18-.567 1.766l3.652 3.209-1.095 4.763c-.199.867.727 1.553 1.483 1.09l4.129-2.523z" fill="#F79E1B"/></svg>